<?xml version="1.0" standalone="no"?>
<!DOCTYPE svg PUBLIC "-//W3C//DTD SVG 20010904//EN"
 "http://www.w3.org/TR/2001/REC-SVG-20010904/DTD/svg10.dtd">
<svg version="1.0" xmlns="http://www.w3.org/2000/svg"
 width="520.000000pt" height="520.000000pt" viewBox="0 0 520.000000 520.000000"
 preserveAspectRatio="xMidYMid meet">
<metadata>
Created by potrace 1.11, written by Peter Selinger 2001-2013
</metadata>
<g transform="translate(0.000000,520.000000) scale(0.100000,-0.100000)"
fill="#000000" stroke="none">
<path d="M0 2600 l0 -2600 2600 0 2600 0 0 2600 0 2600 -2600 0 -2600 0 0
-2600z m4005 1628 c-3 -13 -36 -163 -74 -335 -46 -208 -74 -319 -87 -335 -10
-13 -316 -379 -679 -812 -363 -433 -661 -792 -663 -797 -4 -11 128 -12 143 -1
6 4 67 75 136 157 69 83 358 428 643 769 469 559 520 623 531 670 7 28 37 160
66 294 l52 242 50 0 c46 0 49 -1 44 -22 -3 -13 -36 -162 -73 -333 l-68 -310
-540 -645 c-297 -355 -573 -684 -613 -731 -40 -47 -73 -89 -73 -92 0 -4 169
-7 376 -7 353 0 375 -1 370 -17 -3 -10 -39 -178 -81 -373 -42 -195 -81 -372
-86 -392 l-10 -38 -1165 0 -1164 0 5 23 c2 12 29 149 59 304 l55 281 625 764
624 763 -329 3 c-363 3 -332 -3 -314 60 l6 22 354 0 354 0 30 38 31 37 -475 3
c-416 2 -475 4 -475 17 0 14 164 758 176 798 5 16 67 17 1125 17 l1119 0 -5
-22z m-298 -2470 c-3 -13 -41 -184 -84 -380 l-78 -358 -130 2 c-103 2 -112 3
-44 5 l86 4 78 367 c43 202 80 370 82 375 2 4 25 7 50 7 42 0 45 -2 40 -22z
m-2400 -735 c-10 -10 -77 -12 -83 -2 -3 5 16 9 42 9 26 0 44 -3 41 -7z m639 0
c-8 -8 -567 -5 -575 3 -2 2 128 4 289 4 161 0 290 -3 286 -7z m640 0 c-8 -8
-567 -5 -575 3 -2 2 128 4 289 4 161 0 290 -3 286 -7z m640 0 c-8 -8 -567 -5
-575 3 -2 2 128 4 289 4 161 0 290 -3 286 -7z"/>
</g>
</svg>
