<?xml version="1.0" standalone="no"?>
<!DOCTYPE svg PUBLIC "-//W3C//DTD SVG 20010904//EN"
 "http://www.w3.org/TR/2001/REC-SVG-20010904/DTD/svg10.dtd">
<svg version="1.0" xmlns="http://www.w3.org/2000/svg"
 width="520.000000pt" height="520.000000pt" viewBox="0 0 520.000000 520.000000"
 preserveAspectRatio="xMidYMid meet">
<metadata>
Created by potrace 1.11, written by Peter Selinger 2001-2013
</metadata>
<g transform="translate(0.000000,520.000000) scale(0.100000,-0.100000)"
fill="#000000" stroke="none">
<path d="M1709 3813 l-95 -428 498 -3 c274 -1 498 -6 498 -10 0 -5 -325 -405
-723 -891 l-722 -882 -59 -307 c-33 -169 -61 -313 -64 -320 -3 -10 242 -12
1219 -10 l1223 3 92 425 c51 234 93 426 94 428 0 1 -247 2 -550 2 -302 0 -550
4 -550 8 0 4 322 392 715 861 393 469 715 855 715 857 0 4 139 641 147 672 l5
22 -1174 0 -1173 0 -96 -427z"/>
</g>
</svg>
