<?xml version="1.0" encoding="UTF-8"?>
<svg width="260px" height="260px" viewBox="0 0 260 260" version="1.1" xmlns="http://www.w3.org/2000/svg" xmlns:xlink="http://www.w3.org/1999/xlink">
    <!-- Generator: Sketch 52.6 (67491) - http://www.bohemiancoding.com/sketch -->
    <title>Artboard Copy</title>
    <desc>Created with Sketch.</desc>
    <defs>
        <linearGradient x1="50%" y1="100%" x2="50%" y2="2.12698699%" id="linearGradient-1">
            <stop stop-color="#221D54" offset="0%"></stop>
            <stop stop-color="#36316E" offset="100%"></stop>
        </linearGradient>
        <linearGradient x1="50%" y1="0%" x2="50%" y2="100%" id="linearGradient-2">
            <stop stop-color="#FEC660" offset="0%"></stop>
            <stop stop-color="#82E5CC" offset="51.8515173%"></stop>
            <stop stop-color="#A57ED5" offset="100%"></stop>
        </linearGradient>
    </defs>
    <g id="Artboard-Copy" stroke="none" stroke-width="1" fill="none" fill-rule="evenodd">
        <g id="Group-2">
            <path d="M74.9936421,4.07559446e-15 L185.006358,3.0298329e-15 C211.083281,-1.76042017e-15 220.539403,2.71514913 230.072737,7.81363159 C239.60607,12.912114 247.087886,20.3939298 252.186368,29.9272632 C257.284851,39.4605965 260,48.916719 260,74.9936421 L260,185.006358 C260,211.083281 257.284851,220.539403 252.186368,230.072737 C247.087886,239.60607 239.60607,247.087886 230.072737,252.186368 C220.539403,257.284851 211.083281,260 185.006358,260 L74.9936421,260 C48.916719,260 39.4605965,257.284851 29.9272632,252.186368 C20.3939298,247.087886 12.912114,239.60607 7.81363159,230.072737 C2.71514913,220.539403 8.2790408e-15,211.083281 5.08553876e-15,185.006358 L2.0198886e-15,74.9936421 C-1.17361345e-15,48.916719 2.71514913,39.4605965 7.81363159,29.9272632 C12.912114,20.3939298 20.3939298,12.912114 29.9272632,7.81363159 C39.4605965,2.71514913 48.916719,8.86584753e-15 74.9936421,4.07559446e-15 Z" id="App-Icon-Copy-2" fill="url(#linearGradient-1)"></path>
            <g id="Group" transform="translate(52.000000, 47.666667)">
                <polygon id="z" fill="url(#linearGradient-2)" points="124.764431 164.666667 8.23333333 164.666667 14.1703442 134.153192 83.4814946 49.5162695 35.4331274 49.5162695 44.6838188 8.23333333 156.658605 8.23333333 149.340894 41.6462783 80.8581642 123.383731 133.738982 123.383731"></polygon>
                <polygon id="z-copy-2" fill="#2E2B4F" points="120.647764 160.55 4.11666667 160.55 10.0536776 130.036525 79.3648279 45.3996028 31.3164607 45.3996028 40.5671521 4.11666667 152.541939 4.11666667 145.224228 37.5296117 76.7414975 119.267064 129.622315 119.267064"></polygon>
                <polygon id="z-copy-2" fill="#FFFFFF" points="116.531097 156.433333 0 156.433333 5.93701089 125.919859 75.2481612 41.2829362 27.1997941 41.2829362 36.4504854 0 148.425272 0 141.107561 33.412945 72.6248308 115.150397 125.505649 115.150397"></polygon>
            </g>
        </g>
    </g>
</svg>